<svg width="101" height="76" viewBox="0 0 101 76" fill="none" xmlns="http://www.w3.org/2000/svg">
<g clip-path="url(#clip0_329_62)">
<path d="M67.0103 67.7058C59.5908 71.824 50.9057 73.0233 42.651 71.0695C34.3963 69.1158 27.1648 64.1493 22.3687 57.1399C17.5726 50.1305 15.5562 41.5816 16.7134 33.1625C17.8706 24.7435 22.1182 17.0589 28.6267 11.6094C29.2157 11.1335 29.8237 10.6338 30.4554 10.1817C34.3635 7.33809 38.8297 5.35865 43.5586 4.37439C48.2875 3.39013 53.1711 3.42351 57.8862 4.4723C62.6012 5.52109 67.0401 7.56138 70.9091 10.4581C74.7781 13.3548 77.9889 17.0419 80.3289 21.2753C82.5982 25.376 83.9981 29.902 84.4411 34.5698C84.8841 39.2377 84.3606 43.9469 82.9033 48.4026C82.6658 49.1419 82.4014 49.8684 82.1101 50.5823C79.7317 56.5283 75.7197 61.6769 70.5394 65.431C69.412 66.2629 68.2333 67.0227 67.0103 67.7058Z" fill="url(#paint0_linear_329_62)"/>
<g opacity="0.8">
<path d="M48.6529 69.0755C48.6541 70.0543 48.5456 71.0301 48.3295 71.9847C39.4931 71.4216 31.2233 67.431 25.2749 60.8596C26.9741 58.7314 29.2912 57.1846 31.9059 56.4331C34.5205 55.6815 37.3037 55.7624 39.8705 56.6645C42.4373 57.5665 44.6611 59.2453 46.2344 61.4686C47.8076 63.6919 48.6528 66.35 48.6529 69.0755Z" fill="url(#paint1_linear_329_62)"/>
<path d="M39.3455 42.1041C39.3455 43.7833 38.8485 45.4248 37.9174 46.821C36.9864 48.2172 35.663 49.3054 34.1146 49.948C32.5663 50.5906 30.8626 50.7587 29.2189 50.4311C27.5752 50.1035 26.0653 49.2949 24.8803 48.1076C23.6952 46.9202 22.8882 45.4074 22.5613 43.7605C22.2343 42.1135 22.4021 40.4065 23.0435 38.8551C23.6848 37.3037 24.7709 35.9777 26.1643 35.0448C27.5578 34.1119 29.1961 33.614 30.872 33.614C33.1193 33.614 35.2746 34.5085 36.8636 36.1007C38.4527 37.6929 39.3455 39.8524 39.3455 42.1041Z" fill="url(#paint2_linear_329_62)"/>
<path d="M80.9742 22.374C78.1118 22.5408 75.4213 23.7977 73.4536 25.8873C71.4859 27.9769 70.39 30.7412 70.3901 33.6141C70.3901 33.9486 70.4047 34.2802 70.434 34.6089C70.261 34.6089 70.0865 34.6018 69.9121 34.6018C65.6745 34.6018 61.5579 36.018 58.2141 38.6262C54.8703 41.2344 52.4902 44.8856 51.4506 49.0017C50.411 53.1179 50.7714 57.4639 52.4746 61.3518C54.1778 65.2396 57.1266 68.4472 60.8542 70.4668C66.6603 68.6164 71.8674 65.2447 75.9363 60.7008C80.0052 56.1569 82.788 50.606 83.9968 44.6226C84.2095 43.5652 84.3722 42.4908 84.4847 41.3993C84.605 40.2236 84.6651 39.0425 84.6649 37.8606C84.6734 32.4787 83.4086 27.1714 80.9742 22.374Z" fill="url(#paint3_linear_329_62)"/>
<path d="M73.97 12.9969C69.5931 14.6417 64.9557 15.4814 60.2811 15.4754C51.4357 15.4895 42.8512 12.4738 35.9512 6.92844C42.162 3.99434 49.1112 3.00395 55.8922 4.08647C62.6732 5.169 68.9711 8.27417 73.9644 12.9969H73.97Z" fill="url(#paint4_linear_329_62)"/>
<path d="M47.7381 28.2391C47.7383 29.0198 47.5076 29.7831 47.075 30.4325C46.6424 31.0818 46.0273 31.5881 45.3076 31.8872C44.5879 32.1864 43.7958 32.265 43.0315 32.1132C42.2671 31.9613 41.5649 31.5859 41.0135 31.0342C40.4621 30.4825 40.0864 29.7795 39.9338 29.0139C39.7811 28.2483 39.8585 27.4545 40.156 26.7329C40.4535 26.0114 40.9579 25.3944 41.6054 24.96C42.2528 24.5256 43.0143 24.2933 43.7935 24.2925C44.3112 24.2917 44.824 24.3932 45.3026 24.5913C45.7811 24.7893 46.216 25.0798 46.5824 25.4464C46.9487 25.8129 47.2394 26.2483 47.4377 26.7275C47.636 27.2067 47.7381 27.7203 47.7381 28.2391Z" fill="url(#paint5_linear_329_62)"/>
</g>
<path d="M70.6189 65.5649C61.1278 60.2351 51.9694 54.3313 43.1944 47.8863C34.3728 41.5024 25.9455 34.5888 17.9588 27.1832C5.08343 15.0662 -2.06949 5.01332 0.529416 1.38205C3.12833 -2.24923 14.8925 1.49193 30.3716 10.0637C29.7373 10.5176 29.1269 11.0193 28.5356 11.4971C18.8315 6.24126 11.9408 3.95739 10.4959 5.94981C9.05099 7.94224 13.1377 13.5086 20.7246 20.8715C27.2719 27.231 36.4611 34.8901 47.0237 42.5923C57.5862 50.2944 67.6909 56.6921 75.7404 60.9828C85.0679 65.9471 91.6533 68.0829 93.0649 66.143C94.4764 64.2032 90.2037 58.3119 82.2448 50.6671C82.5341 49.9504 82.7996 49.221 83.0412 48.4788C95.9166 60.5958 103.069 70.6487 100.471 74.28C97.8717 77.9112 86.0979 74.1366 70.6189 65.5649Z" fill="#04D361"/>
</g>
<defs>
<linearGradient id="paint0_linear_329_62" x1="124.37" y1="37.8224" x2="21.6882" y2="47.5264" gradientUnits="userSpaceOnUse">
<stop stop-color="#DADADA"/>
<stop offset="1" stop-color="#64FFAA"/>
</linearGradient>
<linearGradient id="paint1_linear_329_62" x1="17.2772" y1="51.5955" x2="84.6811" y2="34.2974" gradientUnits="userSpaceOnUse">
<stop stop-color="#1A482F"/>
<stop offset="1" stop-color="#6AFFAD"/>
</linearGradient>
<linearGradient id="paint2_linear_329_62" x1="17.2773" y1="51.5953" x2="84.6812" y2="34.2972" gradientUnits="userSpaceOnUse">
<stop stop-color="#19492F"/>
<stop offset="1" stop-color="#6CFFAF"/>
</linearGradient>
<linearGradient id="paint3_linear_329_62" x1="17.2774" y1="51.5954" x2="84.6813" y2="34.2973" gradientUnits="userSpaceOnUse">
<stop stop-color="#18492E"/>
<stop offset="1" stop-color="#6AFFAD"/>
</linearGradient>
<linearGradient id="paint4_linear_329_62" x1="17.2773" y1="51.5954" x2="84.6812" y2="34.2973" gradientUnits="userSpaceOnUse">
<stop stop-color="#1B5133"/>
<stop offset="1" stop-color="#6BFFAE"/>
</linearGradient>
<linearGradient id="paint5_linear_329_62" x1="17.2772" y1="51.5953" x2="84.6811" y2="34.2972" gradientUnits="userSpaceOnUse">
<stop stop-color="#1C5134"/>
<stop offset="1" stop-color="#72FFB1"/>
</linearGradient>
<clipPath id="clip0_329_62">
<rect width="101" height="76" fill="white"/>
</clipPath>
</defs>
</svg>
